# xmcd
#
# Track frame offsets: 
#        150
#        14245
#        33250
#
# Disc length: 628 seconds
#
# Revision: 1
# Processed by: cddbd v1.5.2PL0 Copyright (c) Steve Scherf et al.
# Submitted via: ExactAudioCopyFreeDBPlugin 1.0
#
DISCID=1f027203
DTITLE=玉置浩二 - ルーキー
DYEAR=1998
DGENRE=JPop
TTITLE0=ルーキー
TTITLE1=BELL
TTITLE2=ルーキー(Instrumental)
EXTD=YEAR: 1998
EXTT0=
EXTT1=
EXTT2=
PLAYORDER=
